<svg width="80" height="80" viewBox="0 0 80 80" fill="none" xmlns="http://www.w3.org/2000/svg">
<circle opacity="0.1" cx="40" cy="40" r="40" fill="#131E27"/>
<g clip-path="url(#clip0_948_6109)">
<path fill-rule="evenodd" clip-rule="evenodd" d="M29.2581 25.7425C29.7951 25.7425 30.2347 25.3029 30.2347 24.7659V15.9766L20.4688 25.7425H29.2581Z" fill="#E8EAF0"/>
<path fill-rule="evenodd" clip-rule="evenodd" d="M30.2346 24.7659C30.2346 25.3029 29.7951 25.7424 29.2581 25.7424H20.4688V59.1406C20.4688 59.6777 20.9085 60.1171 21.4453 60.1171H54.6483C55.1854 60.1171 55.6249 59.6777 55.6249 59.1406V16.9531C55.6249 16.4163 55.1854 15.9766 54.6483 15.9766H30.2346V24.7659Z" fill="white"/>
<path fill-rule="evenodd" clip-rule="evenodd" d="M41.9531 44.4923H57.5781C58.6523 44.4923 59.5312 45.3712 59.5312 46.4454V62.0704C59.5312 63.1447 58.6523 64.0236 57.5781 64.0236H41.9531C40.8789 64.0236 40 63.1447 40 62.0704V46.4454C40.0001 45.3712 40.8789 44.4923 41.9531 44.4923Z" fill="#FFDA6A"/>
<path fill-rule="evenodd" clip-rule="evenodd" d="M45.6224 52.8768C44.8596 52.114 44.8596 50.8774 45.6224 50.1147C46.3852 49.3519 47.6218 49.3519 48.3845 50.1147L49.7656 51.4958L51.1466 50.1147C51.9094 49.3519 53.146 49.3519 53.9087 50.1147C54.6715 50.8775 54.6715 52.1141 53.9087 52.8768L52.5277 54.2579L53.9087 55.6389C54.6715 56.4017 54.6715 57.6383 53.9087 58.401C53.1459 59.1638 51.9093 59.1638 51.1466 58.401L49.7656 57.02L48.3845 58.401C47.6217 59.1638 46.3851 59.1638 45.6224 58.401C44.8596 57.6382 44.8596 56.4016 45.6224 55.6389L47.0034 54.2579L45.6224 52.8768Z" fill="white"/>
<path d="M49.7654 33.5553H30.7222C30.1828 33.5553 29.7456 33.9926 29.7456 34.5319C29.7456 35.0711 30.1828 35.5084 30.7222 35.5084H49.7654C50.3048 35.5084 50.742 35.0711 50.742 34.5319C50.742 33.9926 50.3048 33.5553 49.7654 33.5553Z" fill="#0B0326"/>
<path d="M49.7655 37.95H26.3281C25.7888 37.95 25.3516 38.3873 25.3516 38.9265C25.3516 39.4658 25.7888 39.9031 26.3281 39.9031H49.7655C50.3049 39.9031 50.7421 39.4658 50.7421 38.9265C50.7421 38.3873 50.3049 37.95 49.7655 37.95Z" fill="#0B0326"/>
<path d="M26.3281 31.1138H49.7655C50.3049 31.1138 50.7421 30.6765 50.7421 30.1372C50.7421 29.5979 50.3049 29.1606 49.7655 29.1606H26.3281C25.7888 29.1606 25.3516 29.5979 25.3516 30.1372C25.3516 30.6765 25.7889 31.1138 26.3281 31.1138Z" fill="#0B0326"/>
<path d="M36.0937 42.3446H26.3281C25.7888 42.3446 25.3516 42.7819 25.3516 43.3212C25.3516 43.8604 25.7888 44.2977 26.3281 44.2977H36.0937C36.633 44.2977 37.0702 43.8604 37.0702 43.3212C37.0702 42.7819 36.633 42.3446 36.0937 42.3446Z" fill="#0B0326"/>
<path d="M32.1875 46.7393H26.3281C25.7888 46.7393 25.3516 47.1766 25.3516 47.7158C25.3516 48.2551 25.7888 48.6924 26.3281 48.6924H32.1875C32.7269 48.6924 33.1641 48.2551 33.1641 47.7158C33.1641 47.1766 32.7269 46.7393 32.1875 46.7393Z" fill="#0B0326"/>
<path d="M26.3279 35.5084C26.8673 35.5084 27.3045 35.0711 27.3045 34.5319C27.3045 33.9926 26.8673 33.5553 26.3279 33.5553H26.3272C25.7879 33.5553 25.3511 33.9926 25.3511 34.5319C25.3511 35.0711 25.7887 35.5084 26.3279 35.5084Z" fill="#0B0326"/>
<path d="M54.5993 49.4241C53.4569 48.282 51.5983 48.282 50.4562 49.4241L49.7656 50.1147L49.0751 49.4241C47.9327 48.282 46.0741 48.282 44.9319 49.4241C44.3785 49.9775 44.0737 50.7132 44.0737 51.4958C44.0737 52.2783 44.3785 53.0141 44.9319 53.5674L45.6225 54.2578L44.9319 54.9484C44.3785 55.5017 44.0737 56.2374 44.0737 57.02C44.0737 57.8026 44.3785 58.5383 44.9318 59.0916C45.5031 59.6628 46.2531 59.9484 47.0034 59.9483C47.7536 59.9482 48.5039 59.6626 49.075 59.0916L49.7655 58.4011L50.4561 59.0916C51.5983 60.2339 53.4569 60.2339 54.5993 59.0916C55.7416 57.9493 55.7416 56.0907 54.5993 54.9484L53.9088 54.2578L54.5993 53.5674C55.7416 52.425 55.7416 50.5664 54.5993 49.4241ZM53.2182 57.7105C52.8375 58.091 52.2179 58.0912 51.8371 57.7105L50.4561 56.3294C50.0747 55.9482 49.4564 55.9482 49.075 56.3294L47.6938 57.7105C47.5094 57.8949 47.2642 57.9965 47.0033 57.9965C46.7425 57.9965 46.4973 57.8949 46.3128 57.7105C46.1283 57.526 46.0268 57.2808 46.0268 57.02C46.0268 56.7591 46.1284 56.5139 46.3129 56.3295L47.6939 54.9484C47.8771 54.7652 47.98 54.5168 47.98 54.2578C47.98 53.9989 47.8771 53.7504 47.6939 53.5673L46.3129 52.1863C46.1284 52.0018 46.0269 51.7566 46.0269 51.4958C46.0269 51.2349 46.1285 50.9897 46.313 50.8053C46.5033 50.615 46.7534 50.5197 47.0035 50.5197C47.2536 50.5197 47.5037 50.615 47.694 50.8053L49.0751 52.1864C49.4564 52.5676 50.0747 52.5676 50.4562 52.1864L51.8373 50.8053C52.218 50.4246 52.8376 50.4246 53.2184 50.8053C53.5991 51.186 53.5991 51.8056 53.2184 52.1864L51.8373 53.5674C51.6542 53.7505 51.5513 53.9989 51.5513 54.2579C51.5513 54.5169 51.6541 54.7653 51.8373 54.9485L53.2184 56.3296C53.4028 56.5141 53.5044 56.7592 53.5044 57.0201C53.5043 57.2809 53.4027 57.5261 53.2182 57.7105Z" fill="#0B0326"/>
<path d="M57.578 43.5157H56.6014V16.9531C56.6014 15.8762 55.7252 15 54.6483 15H30.2346C29.9756 15 29.7272 15.1029 29.5441 15.286L19.7782 25.0519C19.5951 25.2351 19.4922 25.4835 19.4922 25.7424V59.1406C19.4922 60.2175 20.3684 61.0937 21.4453 61.0937H39.0234V62.0703C39.0234 63.6858 40.3376 65 41.953 65H57.578C59.1934 65 60.5076 63.6858 60.5076 62.0703V46.4454C60.5076 44.83 59.1934 43.5157 57.578 43.5157ZM29.2581 24.7659H22.8264L29.258 18.3342L29.2581 24.7659ZM21.4453 59.1406V26.719H29.2581C30.335 26.719 31.2112 25.8428 31.2112 24.7659V16.9532V16.9531H54.6483V43.5157H41.953C40.3376 43.5157 39.0234 44.83 39.0234 46.4454V59.1406H21.4453ZM58.5545 62.0703C58.5545 62.6088 58.1164 63.0469 57.578 63.0469H41.953C41.4146 63.0469 40.9765 62.6088 40.9765 62.0703V46.4454C40.9765 45.9069 41.4146 45.4688 41.953 45.4688H57.578C58.1164 45.4688 58.5545 45.9069 58.5545 46.4454V62.0703Z" fill="#0B0326"/>
</g>
<defs>
<clipPath id="clip0_948_6109">
<rect width="50" height="50" fill="white" transform="translate(15 15)"/>
</clipPath>
</defs>
</svg>
