<svg width="50" height="50" viewBox="0 0 50 50" fill="none" xmlns="http://www.w3.org/2000/svg">
<circle opacity="0.78" cx="25" cy="25" r="25" fill="#0B0326"/>
<path d="M31.875 16.25H30.625C29.5895 16.25 28.75 17.0895 28.75 18.125V31.875C28.75 32.9105 29.5895 33.75 30.625 33.75H31.875C32.9105 33.75 33.75 32.9105 33.75 31.875V18.125C33.75 17.0895 32.9105 16.25 31.875 16.25Z" fill="white"/>
<path d="M19.5625 16.7757C19.2804 16.5161 18.9289 16.3442 18.5507 16.281C18.1726 16.2177 17.7842 16.2659 17.433 16.4197C17.0818 16.5734 16.7829 16.826 16.5729 17.1467C16.3628 17.4674 16.2506 17.8424 16.25 18.2257V31.7757C16.2506 32.1591 16.3628 32.534 16.5729 32.8547C16.7829 33.1754 17.0818 33.4281 17.433 33.5818C17.7842 33.7355 18.1726 33.7837 18.5507 33.7205C18.9289 33.6573 19.2804 33.4854 19.5625 33.2257L26.8375 26.507C27.0463 26.3155 27.213 26.0828 27.327 25.8235C27.441 25.5642 27.4999 25.284 27.4999 25.0007C27.4999 24.7175 27.441 24.4373 27.327 24.178C27.213 23.9187 27.0463 23.6859 26.8375 23.4945L19.5625 16.7757Z" fill="white"/>
</svg>
