<svg width="60" height="60" viewBox="0 0 60 60" fill="none" xmlns="http://www.w3.org/2000/svg">
<circle cx="30" cy="30" r="28.5" fill="#0B0326" stroke="#FFDA6A" stroke-width="3"/>
<path d="M26.888 39.6721H23.392C22.512 39.6721 21.792 38.9521 21.792 38.0721V21.9281C21.792 21.0481 22.512 20.3281 23.392 20.3281H26.88C27.76 20.3281 28.48 21.0481 28.48 21.9281V38.0721C28.488 38.9601 27.768 39.6721 26.888 39.6721Z" fill="white"/>
<path d="M36.608 39.6721H33.12C32.24 39.6721 31.52 38.9521 31.52 38.0721V21.9281C31.52 21.0481 32.24 20.3281 33.12 20.3281H36.608C37.488 20.3281 38.208 21.0481 38.208 21.9281V38.0721C38.208 38.9601 37.488 39.6721 36.608 39.6721Z" fill="white"/>
</svg>
