<svg width="50" height="50" viewBox="0 0 50 50" fill="none" xmlns="http://www.w3.org/2000/svg">
<circle opacity="0.78" cx="25" cy="25" r="25" fill="#0B0326"/>
<path d="M18.125 16.25H19.375C20.4105 16.25 21.25 17.0895 21.25 18.125V31.875C21.25 32.9105 20.4105 33.75 19.375 33.75H18.125C17.0895 33.75 16.25 32.9105 16.25 31.875V18.125C16.25 17.0895 17.0895 16.25 18.125 16.25Z" fill="white"/>
<path d="M30.4375 16.7757C30.7196 16.5161 31.0711 16.3442 31.4493 16.281C31.8274 16.2177 32.2158 16.2659 32.567 16.4197C32.9182 16.5734 33.2171 16.826 33.4271 17.1467C33.6372 17.4674 33.7494 17.8424 33.75 18.2257V31.7757C33.7494 32.1591 33.6372 32.534 33.4271 32.8547C33.2171 33.1754 32.9182 33.4281 32.567 33.5818C32.2158 33.7355 31.8274 33.7837 31.4493 33.7205C31.0711 33.6573 30.7196 33.4854 30.4375 33.2257L23.1625 26.507C22.9537 26.3155 22.787 26.0828 22.673 25.8235C22.559 25.5642 22.5001 25.284 22.5001 25.0007C22.5001 24.7175 22.559 24.4373 22.673 24.178C22.787 23.9187 22.9537 23.6859 23.1625 23.4945L30.4375 16.7757Z" fill="white"/>
</svg>
